<?xml version="1.0" encoding="utf-8"?>
<!-- Generator: Adobe Illustrator 24.1.3, SVG Export Plug-In . SVG Version: 6.00 Build 0)  -->
<svg version="1.1"
	 id="svg3455" inkscape:version="0.91 r13725" sodipodi:docname="Map Pin.svg" xmlns:cc="http://creativecommons.org/ns#" xmlns:dc="http://purl.org/dc/elements/1.1/" xmlns:inkscape="http://www.inkscape.org/namespaces/inkscape" xmlns:rdf="http://www.w3.org/1999/02/22-rdf-syntax-ns#" xmlns:sodipodi="http://sodipodi.sourceforge.net/DTD/sodipodi-0.dtd" xmlns:svg="http://www.w3.org/2000/svg"
	 xmlns="http://www.w3.org/2000/svg" xmlns:xlink="http://www.w3.org/1999/xlink" x="0px" y="0px" viewBox="0 0 16 27.9"
	 style="enable-background:new 0 0 16 27.9;" xml:space="preserve">
<style type="text/css">
	.st0{fill:#FFFFFF;stroke:#FFFFFF;stroke-width:0.9485;stroke-miterlimit:3.7939;}
	.st1{fill:#15133C;}
</style>
<sodipodi:namedview  bordercolor="#666666" borderopacity="1.0" fit-margin-bottom="0" fit-margin-left="0" fit-margin-right="0" fit-margin-top="0" id="base" inkscape:current-layer="layer1" inkscape:cx="8.4346812" inkscape:cy="14.715224" inkscape:document-units="px" inkscape:pageopacity="0.0" inkscape:pageshadow="2" inkscape:window-height="705" inkscape:window-maximized="1" inkscape:window-width="1024" inkscape:window-x="-4" inkscape:window-y="-4" inkscape:zoom="12.181359" pagecolor="#ffffff" showgrid="false">
	</sodipodi:namedview>
<g id="layer1" transform="translate(-814.59595,-274.38623)" inkscape:groupmode="layer" inkscape:label="Layer 1">
	<g id="g3477" transform="matrix(1.1855854,0,0,1.1855854,-151.17715,-57.3976)">
		<path id="path4337-3" inkscape:connector-curvature="0" sodipodi:nodetypes="sscccccsscs" class="st0" d="M816.6,282.3
			c-1,1.1-1.6,2.6-1.6,4.1c0.1,3.1,1.4,4.2,3.7,8.5c0.8,1.9,1.6,3.8,2.4,7.1c0.1,0.5,0.2,0.9,0.3,1c0,0,0.2-0.4,0.3-0.9
			c0.8-3.3,1.6-5.2,2.4-7.1c2.2-4.2,3.6-5.4,3.7-8.5c0-1.5-0.6-3-1.6-4.1c-1.1-1.2-2.9-2.1-4.7-2.2
			C819.5,280.2,817.8,281.1,816.6,282.3L816.6,282.3z"/>
		<circle id="path3049" class="st1" cx="821.3" cy="286.6" r="2.4"/>
	</g>
</g>
</svg>
